<?xml version="1.0" encoding="iso-8859-1"?>
<!-- Generator: Adobe Illustrator 19.0.0, SVG Export Plug-In . SVG Version: 6.00 Build 0)  -->
<svg version="1.1" id="Layer_1" xmlns="http://www.w3.org/2000/svg" xmlns:xlink="http://www.w3.org/1999/xlink" x="0px" y="0px"
	 viewBox="0 0 512 512" style="enable-background:new 0 0 512 512;" xml:space="preserve">
<g>
	<g>
		<path d="M468.245,0H43.215C27.226,0,14.491,13.376,14.491,29.353v454.053c0,15.976,12.736,28.594,28.724,28.594h425.031
			c15.986,0,29.264-12.618,29.264-28.594V29.353C497.509,13.376,484.231,0,468.245,0z M478.189,483.406
			c0,5.323-4.611,9.273-9.943,9.273H43.215c-5.335,0-9.403-3.95-9.403-9.273V29.353c0-5.323,4.068-10.032,9.403-10.032h425.031
			c5.333,0,9.943,4.709,9.943,10.032V483.406z"/>
	</g>
</g>
<g>
	<g>
		<path d="M188.106,280.151h-86.943c-5.335,0-9.66,4.325-9.66,9.66c0,5.335,4.325,9.66,9.66,9.66h86.943
			c5.335,0,9.66-4.325,9.66-9.66C197.767,284.476,193.441,280.151,188.106,280.151z"/>
	</g>
</g>
<g>
	<g>
		<path d="M188.106,309.132h-86.943c-5.335,0-9.66,4.325-9.66,9.66c0,5.335,4.325,9.66,9.66,9.66h86.943
			c5.335,0,9.66-4.325,9.66-9.66C197.767,313.458,193.441,309.132,188.106,309.132z"/>
	</g>
</g>
<g>
	<g>
		<path d="M188.106,338.113h-86.943c-5.335,0-9.66,4.325-9.66,9.66c0,5.335,4.325,9.66,9.66,9.66h86.943
			c5.335,0,9.66-4.325,9.66-9.66C197.767,342.439,193.441,338.113,188.106,338.113z"/>
	</g>
</g>
<g>
	<g>
		<path d="M188.106,367.094h-86.943c-5.335,0-9.66,4.325-9.66,9.66c0,5.335,4.325,9.66,9.66,9.66h86.943
			c5.335,0,9.66-4.325,9.66-9.66C197.767,371.42,193.441,367.094,188.106,367.094z"/>
	</g>
</g>
<g>
	<g>
		<path d="M188.106,396.076h-86.943c-5.335,0-9.66,4.325-9.66,9.66c0,5.335,4.325,9.66,9.66,9.66h86.943
			c5.335,0,9.66-4.325,9.66-9.66C197.767,400.401,193.441,396.076,188.106,396.076z"/>
	</g>
</g>
<g>
	<g>
		<path d="M188.106,425.057h-86.943c-5.335,0-9.66,4.325-9.66,9.66s4.325,9.66,9.66,9.66h86.943c5.335,0,9.66-4.325,9.66-9.66
			S193.441,425.057,188.106,425.057z"/>
	</g>
</g>
<g>
	<g>
		<path d="M410.295,280.151h-86.943c-5.335,0-9.66,4.325-9.66,9.66c0,5.335,4.325,9.66,9.66,9.66h86.943
			c5.335,0,9.66-4.325,9.66-9.66C419.955,284.476,415.63,280.151,410.295,280.151z"/>
	</g>
</g>
<g>
	<g>
		<path d="M410.295,309.132h-86.943c-5.335,0-9.66,4.325-9.66,9.66c0,5.335,4.325,9.66,9.66,9.66h86.943
			c5.335,0,9.66-4.325,9.66-9.66C419.955,313.458,415.63,309.132,410.295,309.132z"/>
	</g>
</g>
<g>
	<g>
		<path d="M410.295,338.113h-86.943c-5.335,0-9.66,4.325-9.66,9.66c0,5.335,4.325,9.66,9.66,9.66h86.943
			c5.335,0,9.66-4.325,9.66-9.66C419.955,342.439,415.63,338.113,410.295,338.113z"/>
	</g>
</g>
<g>
	<g>
		<path d="M410.295,367.094h-86.943c-5.335,0-9.66,4.325-9.66,9.66c0,5.335,4.325,9.66,9.66,9.66h86.943
			c5.335,0,9.66-4.325,9.66-9.66C419.955,371.42,415.63,367.094,410.295,367.094z"/>
	</g>
</g>
<g>
	<g>
		<path d="M410.295,396.076h-86.943c-5.335,0-9.66,4.325-9.66,9.66c0,5.335,4.325,9.66,9.66,9.66h86.943
			c5.335,0,9.66-4.325,9.66-9.66C419.955,400.401,415.63,396.076,410.295,396.076z"/>
	</g>
</g>
<g>
	<g>
		<path d="M410.295,425.057h-86.943c-5.335,0-9.66,4.325-9.66,9.66s4.325,9.66,9.66,9.66h86.943c5.335,0,9.66-4.325,9.66-9.66
			S415.63,425.057,410.295,425.057z"/>
	</g>
</g>
<g>
	<g>
		<path d="M430.344,194.834c-24.625-75.862-94.797-126.833-174.616-126.833c-77.281,0-146.729,48.85-172.811,121.559
			c-1.618,4.506,0.309,9.517,4.531,11.777l69.514,37.241c2.658,1.425,5.83,1.524,8.568,0.275c2.743-1.251,4.745-3.711,5.413-6.651
			c9.04-39.8,43.905-67.597,84.785-67.597c41.583,0,77.483,29.58,85.361,70.336c0.576,2.967,2.503,5.494,5.215,6.83
			c1.347,0.665,2.809,0.996,4.271,0.996c1.481,0,2.96-0.34,4.321-1.02l70.58-35.291C429.75,204.32,431.818,199.379,430.344,194.834z
			 M356.955,219.117c-13.887-43.444-54.639-73.833-101.227-73.833c-45.738,0-85.319,28.482-100.163,70.628l-51.462-27.57
			c25.344-60.755,85.257-101.02,151.625-101.02c68.642,0,129.311,42.127,153.486,105.664L356.955,219.117z"/>
	</g>
</g>
<g>
	<g>
		<path d="M366.281,139.764c-3.962-3.568-10.071-3.249-13.644,0.715l-12.929,14.358c-1.663,1.847-2.481,4.159-2.481,6.464
			c0,2.641,1.078,5.272,3.196,7.18c1.847,1.663,4.158,2.481,6.462,2.481c2.642,0,5.274-1.078,7.182-3.196l12.929-14.358
			c1.663-1.847,2.481-4.159,2.481-6.464C369.476,144.303,368.398,141.672,366.281,139.764z"/>
	</g>
</g>
<g>
	<g>
		<path d="M256,96.982c-5.335,0-9.66,4.326-9.66,9.66v19.321c0,5.335,4.325,9.66,9.66,9.66s9.66-4.325,9.66-9.66v-19.321
			C265.66,101.308,261.335,96.982,256,96.982z"/>
	</g>
</g>
<g>
	<g>
		<path d="M315,108.051c-4.984-1.909-10.571,0.578-12.481,5.557l-6.925,18.038c-0.436,1.138-0.644,2.308-0.644,3.459
			c0,3.884,2.359,7.547,6.201,9.022c1.139,0.438,2.309,0.644,3.46,0.644c3.884,0,7.547-2.358,9.021-6.2l6.925-18.038
			c0.436-1.138,0.644-2.308,0.644-3.459C321.201,113.189,318.842,109.526,315,108.051z"/>
	</g>
</g>
<g>
	<g>
		<path d="M171.75,154.839l-12.927-14.359c-3.573-3.969-9.682-4.288-13.644-0.716c-2.118,1.907-3.196,4.538-3.196,7.18
			c0,2.303,0.818,4.616,2.481,6.462l12.927,14.358c1.908,2.119,4.54,3.197,7.182,3.197c2.304,0,4.615-0.818,6.462-2.481
			c2.118-1.907,3.196-4.538,3.196-7.18C174.231,158.998,173.413,156.685,171.75,154.839z"/>
	</g>
</g>
<g>
	<g>
		<path d="M215.863,131.646l-6.922-18.038c-1.912-4.982-7.497-7.472-12.481-5.558c-3.842,1.474-6.201,5.137-6.201,9.021
			c0,1.151,0.207,2.321,0.644,3.459l6.922,18.038c1.474,3.843,5.137,6.201,9.021,6.201c1.151,0,2.321-0.206,3.46-0.644
			c3.842-1.474,6.201-5.137,6.201-9.021C216.507,133.954,216.299,132.784,215.863,131.646z"/>
	</g>
</g>
<g>
</g>
<g>
</g>
<g>
</g>
<g>
</g>
<g>
</g>
<g>
</g>
<g>
</g>
<g>
</g>
<g>
</g>
<g>
</g>
<g>
</g>
<g>
</g>
<g>
</g>
<g>
</g>
<g>
</g>
</svg>
